# xmcd CD database file
#
# Track frame offsets:
#	150
#	15048
#	31322
#	48658
#	65118
#	98741
#	112547
#	128892
#	146537
#	159000
#	173063
#	188548
#	201885
#
# Disc length: 2935 seconds
#
# Revision: 0
# Processed by: cddbd v1.5.1PL0 Copyright (c) Steve Scherf et al.
# Submitted via: CDex 1.51
#
DISCID=9a0b750d
DTITLE=Blues Breakers - Blues Breakers
DYEAR=2003
DGENRE=Blues
TTITLE0=Mojo workin'
TTITLE1=Can't you hear me calling
TTITLE2=Ice man
TTITLE3=Crawling king snake
TTITLE4=Riverside blues
TTITLE5=My babe
TTITLE6=Red headed woman
TTITLE7=Every day
TTITLE8=Bye bye baby
TTITLE9=Walkin' blues
TTITLE10=Cold shot
TTITLE11=Bail o' cotton
TTITLE12=Train arrives
EXTD=YEAR: 2003
EXTT0=
EXTT1=
EXTT2=
EXTT3=
EXTT4=
EXTT5=
EXTT6=
EXTT7=
EXTT8=
EXTT9=
EXTT10=
EXTT11=
EXTT12=
PLAYORDER=
